<svg class="svg-icon" style="width: 1em; height: 1em;vertical-align: middle;fill:#;overflow: hidden;" viewBox="0 0 1024 1024" version="1.1" xmlns="http://www.w3.org/2000/svg"><path d="M683.52 597.333333a33.9968 33.9968 0 0 1-24.132267-10.001066l-146.5344-146.517334-146.5344 146.517334a34.133333 34.133333 0 1 1-48.264533-48.264534l170.666667-170.666666a34.133333 34.133333 0 0 1 48.264533 0l170.666667 170.666666A34.133333 34.133333 0 0 1 683.52 597.333333z"  /><path d="M512.853333 955.733333H512c-121.890133 0-227.584-43.8784-314.146133-130.440533C111.872 739.2768 68.266667 633.890133 68.266667 512c0-121.856 43.588267-227.549867 129.536-314.112C284.450133 111.854933 390.144 68.266667 512 68.266667c121.9072 0 227.293867 43.605333 313.258667 129.5872C911.837867 284.398933 955.733333 390.0928 955.733333 512c0 121.924267-43.912533 227.345067-130.491733 313.344C739.328 911.837867 634.2144 955.733333 512.853333 955.733333zM512 102.4c-112.520533 0-210.1248 40.2432-290.065067 119.620267C142.6432 301.8752 102.4 399.479467 102.4 512c0 112.503467 40.226133 209.783467 119.586133 289.160533C301.909333 881.083733 399.496533 921.6 512 921.6h0.853333c111.940267 0 208.913067-40.4992 288.238934-120.405333C881.083733 721.7664 921.6 624.503467 921.6 512c0-112.520533-40.533333-210.090667-120.4736-290.013867C721.783467 142.626133 624.520533 102.4 512 102.4z"  /></svg>